<svg xmlns="http://www.w3.org/2000/svg" version="1.1" xmlns:xlink="http://www.w3.org/1999/xlink" viewBox="0 0 200 200"><rect width="200" height="200" fill="url('#gradient')"></rect><defs><linearGradient id="gradient" gradientTransform="rotate(45 0.5 0.5)"><stop offset="0%" stop-color="#00e3ff"></stop><stop offset="100%" stop-color="#5bcbf3"></stop></linearGradient></defs><g><g fill="#3c4f75" transform="matrix(1.4082053632821454,0,0,1.4082053632821454,8.487424066655272,110.4299871686017)" stroke="#291aec" stroke-width="0.2"><path d="M10.03-8.30L10.03-5.66L4.50-5.66L4.50 0L1.07 0L1.07-14.22L10.59-14.22L10.59-11.57L4.50-11.57L4.50-8.30L10.03-8.30ZM16.77 0.20L16.77 0.20Q14.34 0.20 12.83-1.25Q11.33-2.71 11.33-5.03L11.33-5.03L11.33-5.30Q11.33-6.92 11.93-8.16Q12.53-9.40 13.68-10.08Q14.83-10.76 16.42-10.76L16.42-10.76Q18.64-10.76 19.93-9.38Q21.22-8.00 21.22-5.53L21.22-5.53L21.22-4.25L14.68-4.25Q14.85-3.36 15.45-2.85Q16.04-2.34 16.99-2.34L16.99-2.34Q18.55-2.34 19.43-3.44L19.43-3.44L20.94-1.66Q20.32-0.81 19.19-0.31Q18.07 0.20 16.77 0.20ZM16.40-8.22L16.40-8.22Q14.95-8.22 14.68-6.31L14.68-6.31L18.00-6.31L18.00-6.56Q18.02-7.35 17.60-7.79Q17.18-8.22 16.40-8.22ZM27.66 0.20L27.66 0.20Q25.22 0.20 23.72-1.25Q22.22-2.71 22.22-5.03L22.22-5.03L22.22-5.30Q22.22-6.92 22.82-8.16Q23.42-9.40 24.57-10.08Q25.72-10.76 27.30-10.76L27.30-10.76Q29.53-10.76 30.82-9.38Q32.11-8.00 32.11-5.53L32.11-5.53L32.11-4.25L25.57-4.25Q25.74-3.36 26.34-2.85Q26.93-2.34 27.88-2.34L27.88-2.34Q29.44-2.34 30.32-3.44L30.32-3.44L31.83-1.66Q31.21-0.81 30.08-0.31Q28.96 0.20 27.66 0.20ZM27.29-8.22L27.29-8.22Q25.84-8.22 25.57-6.31L25.57-6.31L28.89-6.31L28.89-6.56Q28.91-7.35 28.49-7.79Q28.07-8.22 27.29-8.22ZM33.02-5.36L33.02-5.36Q33.02-7.87 34.10-9.32Q35.19-10.76 37.13-10.76L37.13-10.76Q38.54-10.76 39.51-9.65L39.51-9.65L39.51-15L42.81-15L42.81 0L39.85 0L39.69-1.13Q38.67 0.20 37.11 0.20L37.11 0.20Q35.22 0.20 34.12-1.25Q33.02-2.70 33.02-5.36ZM36.32-5.76L36.31-5.16Q36.31-2.34 37.95-2.34L37.95-2.34Q39.04-2.34 39.51-3.26L39.51-3.26L39.51-7.29Q39.06-8.22 37.97-8.22L37.97-8.22Q36.45-8.22 36.32-5.76L36.32-5.76ZM54.49-5.36L54.49-5.20Q54.49-2.60 53.42-1.20Q52.34 0.20 50.39 0.20L50.39 0.20Q48.78 0.20 47.79-1.08L47.79-1.08L47.66 0L44.71 0L44.71-15L48.00-15L48.00-9.72Q48.92-10.76 50.37-10.76L50.37-10.76Q52.34-10.76 53.42-9.35Q54.49-7.93 54.49-5.36L54.49-5.36ZM51.19-5.40L51.19-5.40Q51.19-6.92 50.79-7.57Q50.38-8.22 49.54-8.22L49.54-8.22Q48.43-8.22 48.00-7.37L48.00-7.37L48.00-3.17Q48.42-2.33 49.56-2.33L49.56-2.33Q50.72-2.33 51.04-3.47L51.04-3.47Q51.19-4.02 51.19-5.40ZM65.19 0L61.89 0Q61.72-0.32 61.58-0.95L61.58-0.95Q60.67 0.20 59.04 0.20L59.04 0.20Q57.55 0.20 56.50-0.71Q55.46-1.61 55.46-2.98L55.46-2.98Q55.46-4.70 56.73-5.58Q58.00-6.46 60.42-6.46L60.42-6.46L61.44-6.46L61.44-7.01Q61.44-8.47 60.18-8.47L60.18-8.47Q59.00-8.47 59.00-7.31L59.00-7.31L55.71-7.31Q55.71-8.85 57.02-9.80Q58.32-10.76 60.34-10.76Q62.36-10.76 63.54-9.78Q64.71-8.79 64.74-7.07L64.74-7.07L64.74-2.39Q64.76-0.94 65.19-0.17L65.19-0.17L65.19 0ZM59.83-2.15L59.83-2.15Q60.45-2.15 60.85-2.41Q61.26-2.68 61.44-3.01L61.44-3.01L61.44-4.70L60.48-4.70Q58.76-4.70 58.76-3.15L58.76-3.15Q58.76-2.71 59.06-2.43Q59.37-2.15 59.83-2.15ZM71.03-2.34L71.03-2.34Q71.72-2.34 72.10-2.72Q72.48-3.10 72.47-3.77L72.47-3.77L75.56-3.77Q75.56-2.03 74.31-0.92Q73.07 0.20 71.10 0.20L71.10 0.20Q68.80 0.20 67.47-1.25Q66.14-2.70 66.14-5.25L66.14-5.25L66.14-5.39Q66.14-6.99 66.73-8.22Q67.32-9.44 68.44-10.10Q69.55-10.76 71.07-10.76L71.07-10.76Q73.13-10.76 74.35-9.62Q75.56-8.48 75.56-6.52L75.56-6.52L72.47-6.52Q72.47-7.34 72.07-7.78Q71.67-8.22 71.00-8.22L71.00-8.22Q69.72-8.22 69.50-6.59L69.50-6.59Q69.43-6.07 69.43-5.17L69.43-5.17Q69.43-3.57 69.81-2.96Q70.20-2.34 71.03-2.34ZM83.50 0L81.19-3.94L80.26-3.01L80.26 0L76.97 0L76.97-15.01L80.26-15.01L80.26-7.04L80.60-7.48L83.08-10.57L87.02-10.57L83.32-6.22L87.27 0L83.50 0ZM96.99-8.30L96.99-5.66L91.46-5.66L91.46 0L88.04 0L88.04-14.22L97.55-14.22L97.55-11.57L91.46-11.57L91.46-8.30L96.99-8.30ZM102.29-15L102.29 0L98.99 0L98.99-15L102.29-15ZM103.92-4.82L103.91-5.38Q103.91-6.96 104.52-8.20Q105.14-9.43 106.29-10.10Q107.44-10.76 108.99-10.76L108.99-10.76Q111.37-10.76 112.73-9.29Q114.10-7.82 114.10-5.29L114.10-5.29L114.10-5.18Q114.10-2.71 112.73-1.25Q111.36 0.20 109.01 0.20L109.01 0.20Q106.76 0.20 105.39-1.16Q104.02-2.51 103.92-4.82L103.92-4.82ZM107.21-5.77L107.20-5.18Q107.20-3.71 107.66-3.03Q108.12-2.34 109.01-2.34L109.01-2.34Q110.77-2.34 110.81-5.05L110.81-5.05L110.81-5.38Q110.81-8.22 108.99-8.22L108.99-8.22Q107.34-8.22 107.21-5.77L107.21-5.77ZM123.02-10.57L124.68-4.34L125.74-10.57L128.90-10.57L126.41 0L123.62 0L121.88-6.27L120.12 0L117.33 0L114.84-10.57L118.00-10.57L119.04-4.19L120.72-10.57L123.02-10.57Z"></path></g></g></svg>